<?xml version="1.0" standalone="no"?>
<!DOCTYPE svg PUBLIC "-//W3C//DTD SVG 20010904//EN"
 "http://www.w3.org/TR/2001/REC-SVG-20010904/DTD/svg10.dtd">
<svg version="1.0" xmlns="http://www.w3.org/2000/svg"
 width="512.000000pt" height="512.000000pt" viewBox="0 0 512.000000 512.000000"
 preserveAspectRatio="xMidYMid meet">
<metadata>
Created by potrace 1.11, written by Peter Selinger 2001-2013
</metadata>
<g transform="translate(0.000000,512.000000) scale(0.100000,-0.100000)"
fill="#000000" stroke="none">
<path d="M382 4068 l-2 -138 -65 0 -65 0 0 -385 0 -385 133 0 132 0 -2 382 -2
383 -60 3 -60 3 -4 137 -3 137 -2 -137z"/>
<path d="M4733 4123 c37 -2 97 -2 135 0 37 2 6 3 -68 3 -74 0 -105 -1 -67 -3z"/>
<path d="M792 3313 l-2 -323 -65 0 -65 0 2 -382 3 -383 133 -3 132 -3 0 385 0
385 -62 3 -63 3 -5 320 -5 320 -3 -322z"/>
<path d="M4362 2658 l-2 -48 -65 0 -65 0 0 -385 0 -385 64 0 65 0 4 -47 3 -48
2 48 2 47 65 0 65 0 0 385 0 385 -64 0 -65 0 -4 48 -3 47 -2 -47z"/>
<path d="M3248 2483 c18 -2 45 -2 60 0 15 2 0 4 -33 4 -33 0 -45 -2 -27 -4z"/>
<path d="M3378 2483 c17 -2 47 -2 65 0 17 2 3 4 -33 4 -36 0 -50 -2 -32 -4z"/>
<path d="M4698 2473 c17 -2 47 -2 65 0 17 2 3 4 -33 4 -36 0 -50 -2 -32 -4z"/>
<path d="M4838 2473 c17 -2 47 -2 65 0 17 2 3 4 -33 4 -36 0 -50 -2 -32 -4z"/>
<path d="M3740 2295 l0 -165 125 0 125 0 0 165 0 165 -57 -2 -58 -2 53 -3 52
-4 0 -155 0 -154 -115 0 -115 0 0 155 0 154 58 4 57 3 -62 2 -63 2 0 -165z"/>
<path d="M1188 2213 c18 -2 45 -2 60 0 15 2 0 4 -33 4 -33 0 -45 -2 -27 -4z"/>
<path d="M1318 2213 c17 -2 47 -2 65 0 17 2 3 4 -33 4 -36 0 -50 -2 -32 -4z"/>
<path d="M1740 1545 l0 -385 65 0 64 0 4 -77 3 -78 2 78 2 77 65 0 65 0 0 385
0 385 -135 0 -135 0 0 -385z"/>
<path d="M2352 973 l-2 -173 -65 0 -66 0 3 -97 3 -98 62 -3 62 -3 4 -77 3 -77
2 78 2 77 65 0 65 0 0 100 0 99 -62 3 -63 3 -5 170 -6 170 -2 -172z"/>
<path d="M2708 1073 c17 -2 47 -2 65 0 17 2 3 4 -33 4 -36 0 -50 -2 -32 -4z"/>
<path d="M2848 1073 c17 -2 47 -2 65 0 17 2 3 4 -33 4 -36 0 -50 -2 -32 -4z"/>
<path d="M2708 973 c17 -2 47 -2 65 0 17 2 3 4 -33 4 -36 0 -50 -2 -32 -4z"/>
<path d="M2848 973 c17 -2 47 -2 65 0 17 2 3 4 -33 4 -36 0 -50 -2 -32 -4z"/>
<path d="M3283 843 c37 -2 96 -2 130 0 34 2 4 3 -68 3 -71 0 -99 -1 -62 -3z"/>
</g>
</svg>
